<?xml version="1.0" standalone="no"?>
<!DOCTYPE svg PUBLIC "-//W3C//DTD SVG 20010904//EN"
 "http://www.w3.org/TR/2001/REC-SVG-20010904/DTD/svg10.dtd">
<svg version="1.0" xmlns="http://www.w3.org/2000/svg"
 width="74.000000pt" height="88.000000pt" viewBox="0 0 74.000000 88.000000"
 preserveAspectRatio="xMidYMid meet">

<g transform="translate(0.000000,88.000000) scale(0.100000,-0.100000)"
fill="#000000" stroke="none">
<path d="M106 804 c-14 -13 -16 -60 -16 -359 0 -299 2 -346 16 -359 19 -20 34
-20 62 0 l22 15 0 344 0 344 -22 15 c-28 20 -43 20 -62 0z"/>
<path d="M570 800 c-19 -19 -20 -33 -20 -355 0 -322 1 -336 20 -355 23 -23 33
-24 61 -10 18 10 19 25 19 365 0 340 -1 355 -19 365 -28 14 -38 13 -61 -10z"/>
<path d="M342 554 c-22 -15 -22 -19 -22 -234 0 -185 2 -221 16 -234 19 -20 34
-20 62 0 22 15 22 19 22 234 0 215 0 219 -22 234 -12 9 -25 16 -28 16 -3 0
-16 -7 -28 -16z"/>
</g>
</svg>
